<svg width="48" height="60" viewBox="0 0 48 60" fill="none" xmlns="http://www.w3.org/2000/svg">
<path d="M0 51.382C0 42.8868 6.88677 36 15.382 36H32.618C41.1132 36 48 42.8868 48 51.382C48 54.8863 45.6277 57.9288 42.1706 58.5016C37.8438 59.2185 31.4243 60 24 60C16.5757 60 10.1562 59.2185 5.82941 58.5016C2.37229 57.9288 0 54.8863 0 51.382Z" fill="#F9F7ED"/>
<path d="M9 15C9 6.71573 15.7157 0 24 0C32.2843 0 39 6.71573 39 15C39 23.2843 32.2843 30 24 30C15.7157 30 9 23.2843 9 15Z" fill="#F9F7ED"/>
</svg>
