<svg width="51" height="44" viewBox="0 0 51 44" fill="none" xmlns="http://www.w3.org/2000/svg">
<path d="M39.8565 42.9999C37.2574 42.9999 35.1429 40.8857 35.1429 38.2856C35.1429 35.6868 37.2574 33.5713 39.8565 33.5713C42.4556 33.5713 44.5715 35.6855 44.5715 38.2856C44.5715 40.8857 42.4556 42.9999 39.8565 42.9999ZM39.8565 36.301C38.7631 36.301 37.8731 37.1909 37.8731 38.2856C37.8731 39.3802 38.7631 40.2701 39.8565 40.2701C40.9513 40.2701 41.8414 39.3802 41.8414 38.2856C41.8414 37.1909 40.9513 36.301 39.8565 36.301Z" fill="#060E21"/>
<path d="M40.6831 31.1429H17.4185C16.8144 31.1429 16.279 30.7428 16.1029 30.156L9.30036 7.6313C8.79045 5.9429 7.23489 4.78772 5.47117 4.78772H1.3762C0.616536 4.78772 0 4.16327 0 3.39386C0 2.62445 0.616536 2 1.3762 2H9.46135C10.0655 2 10.6008 2.40004 10.777 2.98685L17.5795 25.5116C18.0894 27.2 19.645 28.3551 21.4087 28.3551H37.0996C38.7167 28.3551 40.1746 27.3816 40.7943 25.888L43.9723 18.2279C45.0651 15.5939 43.1293 12.6951 40.2776 12.6951H24.8555C24.0944 12.6951 23.4793 12.0707 23.4793 11.3012C23.4793 10.5318 24.0944 9.90738 24.8555 9.90738H48.3375C48.7986 9.90738 49.2279 10.1402 49.4839 10.5304C49.7399 10.9193 49.7853 11.4114 49.6064 11.8407L41.952 30.2884C41.7373 30.8069 41.2364 31.1429 40.6831 31.1429Z" fill="#EED852"/>
<path d="M17.1437 43.9999C14.3083 43.9999 12.0001 41.8857 12.0001 39.2856C12.0001 36.6868 14.3083 34.5713 17.1437 34.5713C19.979 34.5713 22.2858 36.6855 22.2858 39.2856C22.2858 41.8857 19.979 43.9999 17.1437 43.9999ZM17.1437 37.301C15.9493 37.301 14.9784 38.1909 14.9784 39.2856C14.9784 40.3802 15.9493 41.2701 17.1437 41.2701C18.3365 41.2701 19.3074 40.3802 19.3074 39.2856C19.3074 38.1909 18.3365 37.301 17.1437 37.301Z" fill="#EED852"/>
<path d="M39.8565 43.9999C37.2574 43.9999 35.1429 41.8857 35.1429 39.2856C35.1429 36.6868 37.2574 34.5713 39.8565 34.5713C42.4556 34.5713 44.5715 36.6855 44.5715 39.2856C44.5715 41.8857 42.4556 43.9999 39.8565 43.9999ZM39.8565 37.301C38.7631 37.301 37.8731 38.1909 37.8731 39.2856C37.8731 40.3802 38.7631 41.2701 39.8565 41.2701C40.9513 41.2701 41.8414 40.3802 41.8414 39.2856C41.8414 38.1909 40.9513 37.301 39.8565 37.301Z" fill="#EED852"/>
<path d="M41.6831 29.1429H18.4185C17.8144 29.1429 17.279 28.7428 17.1029 28.156L10.3004 5.6313C9.79045 3.9429 8.23489 2.78772 6.47117 2.78772H2.3762C1.61654 2.78772 1 2.16327 1 1.39386C1 0.62445 1.61654 0 2.3762 0H10.4614C11.0655 0 11.6008 0.400039 11.777 0.986854L18.5795 23.5116C19.0894 25.2 20.645 26.3551 22.4087 26.3551H38.0996C39.7167 26.3551 41.1746 25.3816 41.7943 23.888L44.9723 16.2279C46.0651 13.5939 44.1293 10.6951 41.2776 10.6951H25.8555C25.0944 10.6951 24.4793 10.0707 24.4793 9.30124C24.4793 8.53183 25.0944 7.90738 25.8555 7.90738H49.3375C49.7986 7.90738 50.2279 8.14015 50.4839 8.53044C50.7399 8.91932 50.7853 9.41136 50.6064 9.84066L42.952 28.2884C42.7373 28.8069 42.2364 29.1429 41.6831 29.1429Z" fill="#060E21"/>
<path d="M18.1437 41.9999C15.3083 41.9999 13.0001 39.8857 13.0001 37.2856C13.0001 34.6868 15.3083 32.5713 18.1437 32.5713C20.979 32.5713 23.2858 34.6855 23.2858 37.2856C23.2858 39.8857 20.979 41.9999 18.1437 41.9999ZM18.1437 35.301C16.9493 35.301 15.9784 36.1909 15.9784 37.2856C15.9784 38.3802 16.9493 39.2701 18.1437 39.2701C19.3365 39.2701 20.3074 38.3802 20.3074 37.2856C20.3074 36.1909 19.3365 35.301 18.1437 35.301Z" fill="#060E21"/>
<path d="M40.8565 41.9999C38.2574 41.9999 36.1429 39.8857 36.1429 37.2856C36.1429 34.6868 38.2574 32.5713 40.8565 32.5713C43.4556 32.5713 45.5715 34.6855 45.5715 37.2856C45.5715 39.8857 43.4556 41.9999 40.8565 41.9999ZM40.8565 35.301C39.7631 35.301 38.8731 36.1909 38.8731 37.2856C38.8731 38.3802 39.7631 39.2701 40.8565 39.2701C41.9513 39.2701 42.8414 38.3802 42.8414 37.2856C42.8414 36.1909 41.9513 35.301 40.8565 35.301Z" fill="#060E21"/>
</svg>
