<svg width="171" height="91" viewBox="0 0 171 91" fill="none" xmlns="http://www.w3.org/2000/svg">
<g filter="url(#filter0_d_2_20)">
<path d="M15 41.4C12.8667 41.4 10.88 41 9.04 40.2C7.2 39.3733 5.70667 38.2267 4.56 36.76C4.21333 36.3067 4.04 35.84 4.04 35.36C4.04 34.72 4.34667 34.1333 4.96 33.6C5.38667 33.2533 5.88 33.08 6.44 33.08C7.24 33.08 7.94667 33.48 8.56 34.28C9.22667 35.1867 10.12 35.8933 11.24 36.4C12.3867 36.9067 13.64 37.16 15 37.16C16.6267 37.16 17.8267 36.7067 18.6 35.8C19.3733 34.8933 19.76 33.5067 19.76 31.64V15C19.76 14.2533 20 13.6667 20.48 13.24C20.96 12.8133 21.6 12.6 22.4 12.6C23.2 12.6 23.84 12.8267 24.32 13.28C24.8267 13.7067 25.08 14.28 25.08 15V31.48C25.08 33.48 24.6667 35.2267 23.84 36.72C23.0133 38.2133 21.84 39.3733 20.32 40.2C18.8 41 17.0267 41.4 15 41.4ZM37.4616 41.4C34.7149 41.4 32.5682 40.6133 31.0216 39.04C29.5016 37.44 28.7416 35.2267 28.7416 32.4V23.4C28.7416 22.6533 28.9816 22.0667 29.4616 21.64C29.9416 21.2133 30.5816 21 31.3816 21C32.2082 21 32.8482 21.2133 33.3016 21.64C33.7549 22.0667 33.9816 22.6533 33.9816 23.4V32.4C33.9816 33.92 34.3816 35.1067 35.1816 35.96C36.0082 36.8133 37.1549 37.24 38.6216 37.24C40.5149 37.24 41.9816 36.64 43.0216 35.44C44.0882 34.24 44.6216 32.5867 44.6216 30.48V23.4C44.6216 22.6533 44.8616 22.0667 45.3416 21.64C45.8216 21.2133 46.4616 21 47.2616 21C48.0882 21 48.7282 21.2133 49.1816 21.64C49.6349 22.0667 49.8616 22.6533 49.8616 23.4V39C49.8616 39.7733 49.6349 40.3733 49.1816 40.8C48.7549 41.2 48.1416 41.4 47.3416 41.4C46.5416 41.4 45.9149 41.1867 45.4616 40.76C45.0082 40.3333 44.7816 39.7467 44.7816 39V37.84C43.7949 39.0667 42.7016 39.9733 41.5016 40.56C40.3282 41.12 38.9816 41.4 37.4616 41.4ZM63.2709 41.4C58.9776 41.4 55.8176 40.16 53.7909 37.68C53.3643 37.12 53.1509 36.6133 53.1509 36.16C53.1509 35.52 53.4843 34.96 54.1509 34.48C54.6043 34.1867 55.0443 34.04 55.4709 34.04C56.0576 34.04 56.6043 34.2933 57.1109 34.8C58.0176 35.7067 58.8976 36.36 59.7509 36.76C60.6309 37.1333 61.7109 37.32 62.9909 37.32C64.0843 37.32 65.0043 37.1733 65.7509 36.88C66.4976 36.5867 66.8709 36.2267 66.8709 35.8C66.8709 35.2667 66.5643 34.8133 65.9509 34.44C65.3376 34.0667 64.0976 33.5867 62.2309 33C59.2976 32.0933 57.2176 31.1467 55.9909 30.16C54.7643 29.1467 54.1509 27.8933 54.1509 26.4C54.1509 24.72 54.8709 23.4 56.3109 22.44C57.7509 21.48 59.7376 21 62.2709 21C64.2176 21 65.9776 21.2933 67.5509 21.88C69.1243 22.4667 70.2709 23.2533 70.9909 24.24C71.3376 24.6933 71.5109 25.1467 71.5109 25.6C71.5109 26.24 71.1909 26.76 70.5509 27.16C70.0976 27.4533 69.6309 27.6 69.1509 27.6C68.3776 27.6 67.6709 27.28 67.0309 26.64C66.4976 26.1333 65.8043 25.7467 64.9509 25.48C64.1243 25.2133 63.2176 25.08 62.2309 25.08C60.3643 25.08 59.4309 25.52 59.4309 26.4C59.4309 26.7467 59.5776 27.0533 59.8709 27.32C60.1643 27.5867 60.6843 27.8667 61.4309 28.16C62.2043 28.4533 63.4043 28.8533 65.0309 29.36C67.6443 30.16 69.4709 31.04 70.5109 32C71.5776 32.96 72.1109 34.2267 72.1109 35.8C72.1109 37.48 71.3376 38.84 69.7909 39.88C68.2443 40.8933 66.0709 41.4 63.2709 41.4ZM91.7069 35.84C92.1335 36.1867 92.3469 36.6133 92.3469 37.12C92.3469 37.6267 92.1602 38.1467 91.7869 38.68C91.2002 39.5333 90.3735 40.2 89.3069 40.68C88.2402 41.16 87.0402 41.4 85.7069 41.4C83.5735 41.4 81.8935 40.8267 80.6669 39.68C79.4669 38.5067 78.8669 36.9067 78.8669 34.88V25.52H77.2269C76.4269 25.52 75.7869 25.3333 75.3069 24.96C74.8269 24.5867 74.5869 24.0933 74.5869 23.48C74.5869 22.84 74.8135 22.3333 75.2669 21.96C75.7469 21.5867 76.4002 21.4 77.2269 21.4H78.8669V15.36C78.8669 14.6133 79.1069 14.0267 79.5869 13.6C80.0669 13.1733 80.7069 12.96 81.5069 12.96C82.3335 12.96 82.9735 13.1733 83.4269 13.6C83.8802 14.0267 84.1069 14.6133 84.1069 15.36V21.4H87.9469C88.7735 21.4 89.4135 21.5867 89.8669 21.96C90.3469 22.3333 90.5869 22.84 90.5869 23.48C90.5869 24.0933 90.3469 24.5867 89.8669 24.96C89.4135 25.3333 88.7735 25.52 87.9469 25.52H84.1069V35.32C84.1069 35.9067 84.2802 36.3733 84.6269 36.72C85.0002 37.0667 85.4935 37.24 86.1069 37.24C86.5869 37.24 87.0002 37.1733 87.3469 37.04C87.7202 36.88 88.0935 36.6267 88.4669 36.28C89.1602 35.6133 89.8002 35.28 90.3869 35.28C90.8135 35.28 91.2535 35.4667 91.7069 35.84Z" fill="white"/>
<path d="M64.64 73C62.6133 73 61.04 72.4667 59.92 71.4C58.8 70.3333 58.24 68.84 58.24 66.92V50.92C58.24 49.0533 58.7733 47.6 59.84 46.56C60.9333 45.52 62.44 45 64.36 45H73.6C76.6933 45 79.08 45.6533 80.76 46.96C82.44 48.2667 83.28 50.16 83.28 52.64C83.28 53.8667 82.92 55.0133 82.2 56.08C81.48 57.12 80.5467 57.9067 79.4 58.44V58.48C80.68 58.9867 81.72 59.8 82.52 60.92C83.3467 62.0133 83.76 63.2 83.76 64.48C83.76 67.1467 82.8933 69.24 81.16 70.76C79.4533 72.2533 77.0933 73 74.08 73H64.64ZM73.6 56.56C74.96 56.56 76.0133 56.2267 76.76 55.56C77.5333 54.8933 77.92 53.9333 77.92 52.68C77.92 51.4533 77.56 50.5467 76.84 49.96C76.12 49.3733 75.04 49.08 73.6 49.08H65.2C64.6667 49.08 64.24 49.2533 63.92 49.6C63.6267 49.9467 63.48 50.4267 63.48 51.04V56.56H73.6ZM73.6 68.92C76.8 68.92 78.4 67.4667 78.4 64.56C78.4 63.3067 77.9733 62.3333 77.12 61.64C76.2933 60.9467 75.12 60.6 73.6 60.6H63.48V66.96C63.48 67.5733 63.6267 68.0533 63.92 68.4C64.24 68.7467 64.6667 68.92 65.2 68.92H73.6ZM95.9694 73.4C93.2227 73.4 91.076 72.6133 89.5294 71.04C88.0094 69.44 87.2494 67.2267 87.2494 64.4V55.4C87.2494 54.6533 87.4894 54.0667 87.9694 53.64C88.4494 53.2133 89.0894 53 89.8894 53C90.716 53 91.356 53.2133 91.8094 53.64C92.2627 54.0667 92.4894 54.6533 92.4894 55.4V64.4C92.4894 65.92 92.8894 67.1067 93.6894 67.96C94.516 68.8133 95.6627 69.24 97.1294 69.24C99.0227 69.24 100.489 68.64 101.529 67.44C102.596 66.24 103.129 64.5867 103.129 62.48V55.4C103.129 54.6533 103.369 54.0667 103.849 53.64C104.329 53.2133 104.969 53 105.769 53C106.596 53 107.236 53.2133 107.689 53.64C108.143 54.0667 108.369 54.6533 108.369 55.4V71C108.369 71.7733 108.143 72.3733 107.689 72.8C107.263 73.2 106.649 73.4 105.849 73.4C105.049 73.4 104.423 73.1867 103.969 72.76C103.516 72.3333 103.289 71.7467 103.289 71V69.84C102.303 71.0667 101.209 71.9733 100.009 72.56C98.836 73.12 97.4894 73.4 95.9694 73.4ZM121.979 83C120.032 83 118.259 82.6933 116.659 82.08C115.085 81.4933 113.872 80.6667 113.019 79.6C112.672 79.1467 112.499 78.68 112.499 78.2C112.499 77.56 112.805 76.9733 113.419 76.44C113.819 76.12 114.259 75.96 114.739 75.96C115.459 75.96 116.152 76.32 116.819 77.04C117.965 78.2667 119.645 78.88 121.859 78.88C123.752 78.88 125.179 78.3733 126.139 77.36C127.125 76.3733 127.619 74.92 127.619 73V71.32C126.979 71.9333 126.152 72.44 125.139 72.84C124.125 73.2133 123.165 73.4 122.259 73.4C118.925 73.4 116.325 72.52 114.459 70.76C112.592 68.9733 111.659 66.4933 111.659 63.32V55.24C111.659 54.6 111.912 54.0667 112.419 53.64C112.925 53.2133 113.552 53 114.299 53C115.019 53 115.632 53.2267 116.139 53.68C116.645 54.1067 116.899 54.6267 116.899 55.24V63.32C116.899 65.24 117.365 66.7333 118.299 67.8C119.259 68.8667 120.579 69.4 122.259 69.4C123.885 69.4 125.152 68.8667 126.059 67.8C126.965 66.7333 127.419 65.24 127.419 63.32V55.68C127.419 54.8267 127.645 54.1733 128.099 53.72C128.579 53.24 129.232 53 130.059 53C130.885 53 131.525 53.24 131.979 53.72C132.432 54.1733 132.659 54.8267 132.659 55.68V72.32C132.659 75.68 131.712 78.2933 129.819 80.16C127.952 82.0533 125.339 83 121.979 83Z" fill="white"/>
<ellipse cx="108" cy="34.5918" rx="5" ry="4.59184" fill="#EED852"/>
<ellipse cx="107" cy="33.0612" rx="5" ry="4.59184" fill="white"/>
<ellipse cx="146" cy="71.5918" rx="5" ry="4.59184" fill="#EED852"/>
<ellipse cx="145" cy="69.7959" rx="5" ry="4.59184" fill="white"/>
</g>
<defs>
<filter id="filter0_d_2_20" x="0.0399933" y="12.6" width="154.96" height="78.4" filterUnits="userSpaceOnUse" color-interpolation-filters="sRGB">
<feFlood flood-opacity="0" result="BackgroundImageFix"/>
<feColorMatrix in="SourceAlpha" type="matrix" values="0 0 0 0 0 0 0 0 0 0 0 0 0 0 0 0 0 0 127 0" result="hardAlpha"/>
<feOffset dy="4"/>
<feGaussianBlur stdDeviation="2"/>
<feComposite in2="hardAlpha" operator="out"/>
<feColorMatrix type="matrix" values="0 0 0 0 0 0 0 0 0 0 0 0 0 0 0 0 0 0 0.25 0"/>
<feBlend mode="normal" in2="BackgroundImageFix" result="effect1_dropShadow_2_20"/>
<feBlend mode="normal" in="SourceGraphic" in2="effect1_dropShadow_2_20" result="shape"/>
</filter>
</defs>
</svg>
