<svg width="28" height="20" viewBox="0 0 28 20" fill="none" xmlns="http://www.w3.org/2000/svg">
<path fill-rule="evenodd" clip-rule="evenodd" d="M25.9109 13.7621C26.2696 13.555 26.7283 13.6779 26.9354 14.0366C27.1425 14.3954 27.0196 14.8541 26.6609 15.0612L20.3887 18.6824L19.7391 19.0574L19.3641 18.4079L15.4603 11.6463C15.2532 11.2875 15.3761 10.8289 15.7348 10.6217C16.0935 10.4146 16.5522 10.5375 16.7593 10.8963L19.8489 16.2476L19.9689 16.0726C20.5227 15.265 20.9468 14.387 21.2319 13.4731C21.9762 11.0866 21.7719 8.4601 20.4583 6.18482C17.9067 1.76537 12.0847 0.293928 7.43153 2.98042C2.77839 5.66691 1.14168 11.4447 3.69325 15.8641C3.90035 16.2228 3.77745 16.6815 3.41873 16.8886C3.06001 17.0957 2.60131 16.9728 2.39421 16.6141C-0.598314 11.4309 1.35816 4.75483 6.68153 1.68138C12.0049 -1.39207 18.7648 0.251616 21.7573 5.43482C23.2937 8.096 23.5248 11.1595 22.6639 13.9197C22.4149 14.7181 22.0744 15.4916 21.6476 16.2235L25.9109 13.7621Z" fill="#060E21"/>
</svg>
