<svg width="42" height="42" viewBox="0 0 42 42" fill="none" xmlns="http://www.w3.org/2000/svg">
<path d="M27.4533 0H14.5677C2.7993 0 0 2.7993 0 14.5467V27.4323C0 39.1986 2.7783 42 14.5467 42H27.4323C39.1986 42 42 39.2217 42 27.4533V14.5677C42 2.7993 39.2217 0 27.4533 0ZM33.9066 29.967H30.8427C29.6835 29.967 29.3349 29.0283 27.2559 26.9493C25.4415 25.2 24.675 24.9816 24.2151 24.9816C23.5809 24.9816 23.4066 25.1559 23.4066 26.0316V28.7868C23.4066 29.5323 23.1651 29.9691 21.2184 29.9691C19.3291 29.8421 17.497 29.2681 15.8731 28.2944C14.2491 27.3207 12.8797 25.9751 11.8776 24.3684C9.49865 21.4074 7.84338 17.9322 7.0434 14.2191C7.0434 13.7592 7.2177 13.3434 8.0934 13.3434H11.1552C11.9427 13.3434 12.2262 13.6941 12.5349 14.5026C14.0217 18.879 16.5585 22.6842 17.5875 22.6842C17.9823 22.6842 18.1545 22.5099 18.1545 21.525V17.0184C18.0243 14.9625 16.9323 14.7882 16.9323 14.0448C16.9463 13.8487 17.0362 13.6658 17.1828 13.5349C17.3294 13.4039 17.5213 13.3353 17.7177 13.3434H22.5309C23.1882 13.3434 23.4066 13.671 23.4066 14.4585V20.5401C23.4066 21.1974 23.6901 21.4158 23.8875 21.4158C24.2823 21.4158 24.5868 21.1974 25.3092 20.475C26.8608 18.5828 28.1285 16.4747 29.0724 14.217C29.1689 13.9458 29.3514 13.7136 29.5922 13.5559C29.833 13.3982 30.1187 13.3235 30.4059 13.3434H33.4698C34.3875 13.3434 34.5828 13.8033 34.3875 14.4585C33.2734 16.9542 31.8949 19.3232 30.2757 21.525C29.946 22.029 29.8137 22.2915 30.2757 22.8816C30.5802 23.3415 31.6533 24.2382 32.3757 25.0908C33.4255 26.1379 34.2973 27.3495 34.9566 28.6776C35.2191 29.5302 34.7802 29.967 33.9066 29.967Z" fill="white"/>
</svg>
